<svg width="32" height="22" viewBox="0 0 32 22" fill="none" xmlns="http://www.w3.org/2000/svg">
<path d="M26.5279 9.42857C28.6833 9.42857 30.4291 7.67054 30.4291 5.5C30.4291 3.32946 28.6833 1.57143 26.5279 1.57143C24.3725 1.57143 22.6267 3.32946 22.6267 5.5C22.6267 7.67054 24.3725 9.42857 26.5279 9.42857ZM26.5279 3.14286C27.8202 3.14286 28.8686 4.19866 28.8686 5.5C28.8686 6.80134 27.8202 7.85714 26.5279 7.85714C25.2356 7.85714 24.1872 6.80134 24.1872 5.5C24.1872 4.19866 25.2356 3.14286 26.5279 3.14286ZM15.6047 11C18.6232 11 21.0663 8.53973 21.0663 5.5C21.0663 2.46027 18.6232 0 15.6047 0C12.5861 0 10.143 2.46027 10.143 5.5C10.143 8.53973 12.5861 11 15.6047 11ZM15.6047 1.57143C17.7552 1.57143 19.5058 3.33437 19.5058 5.5C19.5058 7.66562 17.7552 9.42857 15.6047 9.42857C13.4541 9.42857 11.7035 7.66562 11.7035 5.5C11.7035 3.33437 13.4541 1.57143 15.6047 1.57143ZM27.5032 11H25.5526C24.8114 11 24.1238 11.2357 23.5484 11.6335C24.0068 11.9478 24.4213 12.3161 24.787 12.7335C25.026 12.6304 25.2844 12.5714 25.5526 12.5714H27.5032C28.6833 12.5714 29.6488 13.6272 29.6488 14.9286C29.6488 15.3607 29.9999 15.7143 30.4291 15.7143C30.8582 15.7143 31.2093 15.3607 31.2093 14.9286C31.2093 12.7629 29.5464 11 27.5032 11ZM4.6814 9.42857C6.83679 9.42857 8.58256 7.67054 8.58256 5.5C8.58256 3.32946 6.83679 1.57143 4.6814 1.57143C2.526 1.57143 0.780233 3.32946 0.780233 5.5C0.780233 7.67054 2.526 9.42857 4.6814 9.42857ZM4.6814 3.14286C5.97366 3.14286 7.02209 4.19866 7.02209 5.5C7.02209 6.80134 5.97366 7.85714 4.6814 7.85714C3.38914 7.85714 2.3407 6.80134 2.3407 5.5C2.3407 4.19866 3.38914 3.14286 4.6814 3.14286ZM19.5107 11.9821C17.882 11.9821 17.4772 12.5714 15.6047 12.5714C13.7321 12.5714 13.3273 11.9821 11.6986 11.9821C9.92846 11.9821 8.20707 12.7777 7.19765 14.2853C6.59297 15.1888 6.24186 16.2741 6.24186 17.4429V19.6429C6.24186 20.9442 7.2903 22 8.58256 22H22.6267C23.919 22 24.9674 20.9442 24.9674 19.6429V17.4429C24.9674 16.2741 24.6163 15.1888 24.0117 14.2853C23.0022 12.7777 21.2808 11.9821 19.5107 11.9821ZM23.407 19.6429C23.407 20.075 23.0559 20.4286 22.6267 20.4286H8.58256C8.15343 20.4286 7.80233 20.075 7.80233 19.6429V17.4429C7.80233 16.6277 8.04127 15.8371 8.48991 15.1643C9.16286 14.1576 10.3625 13.5536 11.6937 13.5536C13.0299 13.5536 13.5078 14.1429 15.6047 14.1429C17.7015 14.1429 18.1794 13.5536 19.5107 13.5536C20.842 13.5536 22.0416 14.1576 22.7145 15.1643C23.1632 15.8371 23.4021 16.6277 23.4021 17.4429V19.6429H23.407ZM7.66091 11.6335C7.08061 11.2357 6.39303 11 5.65669 11H3.7061C1.66287 11 0 12.7629 0 14.9286C0 15.3607 0.351105 15.7143 0.780233 15.7143C1.20936 15.7143 1.56047 15.3607 1.56047 14.9286C1.56047 13.6272 2.526 12.5714 3.7061 12.5714H5.65669C5.92489 12.5714 6.18334 12.6304 6.42229 12.7335C6.78802 12.3161 7.2074 11.9478 7.66091 11.6335Z" fill="white"/>
</svg>
