<svg width="22" height="22" viewBox="0 0 22 22" fill="none" xmlns="http://www.w3.org/2000/svg">
<path d="M11 0C4.92472 0 0 4.92472 0 11C0 17.0753 4.92472 22 11 22C17.0753 22 22 17.0753 22 11C22 4.92472 17.0753 0 11 0ZM20.5682 11.2417L18.669 10.7667C18.5816 10.7445 18.5066 10.6926 18.4583 10.619L17.6612 9.42274C17.6226 9.36432 17.602 9.29584 17.602 9.22581C17.602 9.15577 17.6226 9.08729 17.6612 9.02887L18.5301 7.72528C18.5647 7.67383 18.6104 7.63258 18.6658 7.60552L19.729 7.07371C20.2715 8.27351 20.5806 9.60016 20.5806 11C20.5806 11.0816 20.5704 11.1606 20.5682 11.2417ZM1.41935 11C1.41935 10.4713 1.47347 9.95633 1.55641 9.45069C1.87399 9.92085 2.20044 10.4025 2.43952 10.7529C2.70032 11.1375 3.0077 11.4897 3.38782 11.8325C3.86331 12.2623 4.38847 12.6234 4.94734 12.9042C5.55988 13.2133 6.45806 13.7003 7.08879 14.0498C7.3119 14.174 7.45206 14.4118 7.45206 14.6695V16.0897C7.45206 16.6579 7.67383 17.1933 8.07569 17.5951C8.63722 18.1567 8.91444 18.9998 8.87141 19.3667V20.334C4.61069 19.3622 1.41935 15.5504 1.41935 11ZM10.2868 20.5447L10.2832 19.4607C10.3941 18.6366 9.86452 17.3769 9.07855 16.5914C8.94681 16.4592 8.87052 16.276 8.87052 16.0897V14.6695C8.87052 13.8946 8.45048 13.1814 7.77407 12.8079C7.13093 12.4517 6.21323 11.9532 5.5856 11.6365C5.1394 11.4125 4.71935 11.1237 4.30198 10.7472C4.04138 10.5109 3.80971 10.2445 3.61181 9.95367C3.18335 9.32427 2.47899 8.2806 2.04165 7.63169C3.19399 4.57698 5.85528 2.25855 9.11891 1.60609L11.416 3.90323L10.7494 4.56988C10.3489 4.9704 10.3351 5.61355 10.7077 6.03093L10.454 6.03226C10.1768 6.03226 9.91331 6.13915 9.71238 6.33387L9.27282 6.76145C8.9375 7.08524 8.85278 7.58335 9.06214 8.00117L9.23956 8.35512C8.93173 8.23314 8.58399 8.21673 8.26242 8.32585L6.87899 8.78669C6.63223 8.86876 6.41761 9.02651 6.2656 9.23751C6.1136 9.44851 6.03195 9.70205 6.03226 9.9621C6.03226 10.4349 6.29439 10.8594 6.7171 11.071L7.20899 11.3171C7.68448 11.5549 8.2123 11.6888 8.74456 11.7075C8.85012 11.8095 9.02177 12.0428 9.13 12.1905C9.39214 12.5489 9.64008 12.8877 9.97274 13.0541L10.1227 13.129H13.251C13.4382 13.129 13.6209 13.2044 13.7527 13.3371L14.3599 13.9443C14.4801 14.0655 14.5478 14.2291 14.5484 14.3998C14.5484 14.7569 14.4029 15.1059 14.1465 15.3605L13.6435 15.8631C13.4252 16.0831 13.2684 16.3565 13.1889 16.6561L13.1392 16.8517C13.0975 17.0154 13.0576 17.1791 12.9977 17.3396L11.8099 20.5407C11.5425 20.5633 11.2737 20.5815 11.0004 20.5815C10.7592 20.5806 10.5232 20.562 10.2868 20.5447ZM13.428 20.2569L14.3266 17.8346C14.4056 17.6262 14.461 17.4119 14.5151 17.1977L14.5608 17.0181C14.5759 16.96 14.6078 16.905 14.7422 16.7706L15.1498 16.3643C15.6697 15.848 15.9677 15.1312 15.9677 14.3989C15.9677 13.8556 15.7473 13.3242 15.3636 12.9401L14.7564 12.3329C14.3599 11.9363 13.8112 11.7092 13.251 11.7092H10.548C10.4633 11.6103 10.3555 11.4613 10.2748 11.3517C9.91064 10.8545 9.49726 10.2903 8.87097 10.2903C8.51613 10.2903 8.16129 10.2065 7.84371 10.0477L7.73992 9.99581L8.71173 9.67202L9.12335 10.0295C9.31762 10.1972 9.56423 10.2903 9.8206 10.2903H10.0717C10.4433 10.2903 10.7813 10.1018 10.9769 9.78512C11.1725 9.46931 11.1903 9.08165 11.024 8.74988L10.4487 7.59887L10.5986 7.45206H10.8536C11.1379 7.45206 11.4054 7.34117 11.6063 7.14024L11.9612 6.7854C12.3617 6.38488 12.3754 5.74173 12.0029 5.32435L12.4202 4.90698C12.6877 4.63863 12.8363 4.28246 12.8363 3.90367C12.8363 3.52488 12.6881 3.16827 12.4202 2.90036L10.9428 1.4229C10.9623 1.4229 10.9814 1.4198 11.0009 1.4198C14.3776 1.4198 17.3454 3.1798 19.0522 5.82645L18.0329 6.33609C17.757 6.4741 17.5218 6.68172 17.3507 6.93843L16.4818 8.24202C16.0826 8.83992 16.0826 9.61214 16.4818 10.2105L17.2789 11.4067C17.5242 11.774 17.8945 12.0352 18.3252 12.1435L20.4267 12.6686C19.7738 16.3567 17.0096 19.3161 13.428 20.2569Z" fill="white"/>
</svg>
