<svg width="22" height="22" viewBox="0 0 22 22" fill="none" xmlns="http://www.w3.org/2000/svg">
<path d="M11 0C4.92339 0 0 4.92339 0 11C0 17.0766 4.92339 22 11 22C17.0766 22 22 17.0766 22 11C22 4.92339 17.0766 0 11 0ZM16.6774 18.7C15.0851 19.8754 13.1246 20.5806 11 20.5806C8.8754 20.5806 6.91492 19.8754 5.32258 18.7V18.0968C5.32258 16.531 6.59556 15.2581 8.16129 15.2581C8.65363 15.2581 9.38105 15.7637 11 15.7637C12.6234 15.7637 13.3419 15.2581 13.8387 15.2581C15.4044 15.2581 16.6774 16.531 16.6774 18.0968V18.7ZM18.0347 17.4802C17.7331 15.4222 15.981 13.8387 13.8387 13.8387C12.9294 13.8387 12.4903 14.3444 11 14.3444C9.50968 14.3444 9.075 13.8387 8.16129 13.8387C6.01895 13.8387 4.26694 15.4222 3.96532 17.4802C2.39073 15.7726 1.41935 13.5016 1.41935 11C1.41935 5.71734 5.71734 1.41935 11 1.41935C16.2827 1.41935 20.5806 5.71734 20.5806 11C20.5806 13.5016 19.6093 15.7726 18.0347 17.4802ZM11 4.96774C8.84435 4.96774 7.09677 6.71532 7.09677 8.87097C7.09677 11.0266 8.84435 12.7742 11 12.7742C13.1556 12.7742 14.9032 11.0266 14.9032 8.87097C14.9032 6.71532 13.1556 4.96774 11 4.96774ZM11 11.3548C9.62944 11.3548 8.51613 10.2415 8.51613 8.87097C8.51613 7.5004 9.62944 6.3871 11 6.3871C12.3706 6.3871 13.4839 7.5004 13.4839 8.87097C13.4839 10.2415 12.3706 11.3548 11 11.3548Z" fill="white"/>
</svg>
