<svg width="20" height="22" viewBox="0 0 20 22" fill="none" xmlns="http://www.w3.org/2000/svg">
<path d="M15.1185 5.5C15.1185 2.46731 12.6523 0 9.6209 0C6.58945 0 4.12324 2.46731 4.12324 5.5H0V18.5625C0 20.461 1.53836 22 3.43603 22H15.8058C17.7034 22 19.2418 20.461 19.2418 18.5625V5.5H15.1185ZM9.6209 1.375C11.8945 1.375 13.7441 3.22545 13.7441 5.5H5.49765C5.49765 3.22545 7.34731 1.375 9.6209 1.375ZM17.8674 18.5625C17.8674 19.6998 16.9425 20.625 15.8058 20.625H3.43603C2.29927 20.625 1.37441 19.6998 1.37441 18.5625V6.875H4.12324V8.9375C4.12324 9.31721 4.43094 9.625 4.81045 9.625C5.18996 9.625 5.49765 9.31721 5.49765 8.9375V6.875H13.7441V8.9375C13.7441 9.31721 14.0518 9.625 14.4313 9.625C14.8109 9.625 15.1185 9.31721 15.1185 8.9375V6.875H17.8674V18.5625Z" fill="white"/>
</svg>
